<?xml version="1.0" encoding="UTF-8"?>
<svg id="Layer_1" xmlns="http://www.w3.org/2000/svg" version="1.1" viewBox="0 0 208.32 208.4">
  <!-- Generator: Adobe Illustrator 29.2.1, SVG Export Plug-In . SVG Version: 2.1.0 Build 116)  -->
  <path d="M174.84,27.66c49.75,45.01,42.82,126.25-12.61,163.26-59.83,39.94-142.53,8.05-159.13-61.71C-20.74,29.04,98.37-41.52,174.84,27.66ZM38.45,31.81C-18.17,83.64,4.28,178.41,78.48,198.2c76.63,20.44,144.48-52.93,117.71-127.67C172.79,5.21,89.81-15.21,38.45,31.81Z"/>
  <path d="M46.83,124.81l2.64-7.01,58.09-.96v-2.98c-20.4,2.22-22.32-10.83-14.95-26.4l11.96-.48-2.95,15.51c.1,3.5,7.37,4.57,8.92,1.67l3.92-16.74,12.01-.44c1.11,1.13-5.12,27.93-6.47,30.88s-6.07,6.96-8.97,6.96H46.83Z"/>
  <polygon points="65.75 76.03 62.8 84.53 51.85 85.04 42.85 124.81 28.91 124.81 37.89 85.5 26.92 84.98 29.41 76.03 65.75 76.03"/>
  <path d="M147.39,76.03c2.23,2.25-8.5,33.99-6.28,38.57,3.02,6.24,26.26,1.76,33.15,3.25l-1.1,6.85c-11.34-1.02-26.28,1.78-37.17.05-17.88-2.83-1.56-37.73-1.51-48.68l12.9-.05Z"/>
  <path d="M81.58,112.77c-11.02-.61-29.31,4.6-27.67-12.23s19.54-15.87,32.33-12.61l-4.66,24.84ZM73.71,93.95l-6.5.96-2.37,9.89c8.13,4.26,7.99-4.92,8.87-10.84Z"/>
  <path d="M175.22,112.81c-14.11.35-34.71,3.06-26.31-17.85,4.76-11.86,20.79-9.61,30.92-7.04l-4.61,24.89ZM167.29,93.95c-7.16-2.06-10.46,5.85-7.98,11.53l6,.42,1.99-11.95Z"/>
</svg>